<svg xmlns="http://www.w3.org/2000/svg" version="1.0" preserveAspectRatio="xMidYMid meet" viewBox="224 239.07 606.88 575.88">

<g transform="translate(0.000000,1024.000000) scale(0.100000,-0.100000)" fill="#000000" stroke="none">
<path d="M5685 7834 c-160 -39 -328 -156 -420 -294 -143 -215 -164 -467 -57 -692 168 -357 553 -508 921 -362 182 72 328 228 399 426 34 96 43 286 18 391 -60 254 -263 463 -512 527 -93 24 -258 26 -349 4z m241 -219 c34 -22 55 -58 61 -103 14 -101 -103 -176 -198 -126 -40 20 -73 93 -65 139 18 93 124 141 202 90z m-386 -370 c39 -20 60 -63 60 -121 0 -39 -5 -51 -33 -79 -84 -84 -218 -30 -221 89 -1 49 23 92 65 113 33 17 94 16 129 -2z m763 -4 c44 -29 61 -60 61 -113 0 -41 -5 -53 -34 -83 -57 -59 -142 -56 -195 6 -46 55 -28 160 33 193 38 21 101 20 135 -3z m-395 -11 c97 -59 60 -210 -51 -210 -69 0 -125 68 -114 137 7 42 23 62 62 79 42 18 65 17 103 -6z m-4 -344 c92 -38 113 -171 35 -226 -39 -28 -121 -29 -158 -3 -84 62 -71 188 23 229 40 17 59 17 100 0z"/>
<path d="M7085 7370 c-173 -35 -325 -161 -386 -318 -33 -87 -38 -239 -11 -329 34 -111 122 -226 226 -294 33 -22 53 -39 45 -40 -8 -1 -358 -3 -779 -5 -421 -2 -786 -4 -812 -4 -34 0 -54 -6 -68 -20 -19 -19 -20 -33 -20 -254 l0 -235 26 -20 c25 -20 40 -21 225 -21 l199 0 0 -134 c0 -74 4 -146 10 -161 21 -55 25 -55 685 -55 660 0 664 0 685 55 6 16 10 185 10 426 l0 399 63 0 c273 0 508 233 507 505 -1 320 -297 567 -605 505z m154 -283 c49 -84 47 -83 194 -102 31 -4 47 -11 47 -20 0 -8 -29 -43 -65 -77 l-65 -63 8 -98 c4 -54 5 -100 1 -102 -3 -3 -45 14 -93 37 l-87 42 -85 -42 c-46 -23 -89 -42 -95 -42 -11 0 -6 102 7 172 5 23 -5 38 -60 97 -36 39 -66 74 -66 80 0 11 28 18 111 27 37 4 71 9 77 13 5 3 31 41 57 84 26 43 52 76 58 74 7 -2 32 -38 56 -80z"/>
<path d="M4600 6795 c0 -79 -119 -229 -222 -279 -97 -47 -148 -56 -340 -56 -199 0 -293 -14 -383 -56 -71 -33 -169 -126 -210 -201 l-29 -52 -29 57 c-54 107 -147 185 -270 225 -53 17 -91 21 -257 22 -118 1 -213 7 -240 15 -145 40 -267 149 -315 282 -12 33 -24 57 -27 52 -19 -30 -38 -128 -38 -190 0 -105 25 -207 75 -309 110 -224 238 -332 527 -444 123 -49 206 -99 265 -163 101 -111 112 -208 64 -563 -80 -584 90 -1087 464 -1372 250 -191 726 -249 1113 -137 128 37 132 40 179 128 23 43 60 101 81 130 39 51 146 135 158 123 3 -3 -6 -25 -19 -49 -14 -24 -47 -92 -72 -152 -65 -152 -115 -249 -173 -334 -64 -94 -214 -265 -297 -338 l-65 -56 -83 13 c-120 20 -418 18 -532 -5 -249 -48 -496 -134 -730 -255 -133 -69 -349 -204 -374 -234 -15 -18 -6 -30 106 -156 l49 -54 99 60 c254 154 574 288 820 343 117 27 340 37 460 21 113 -15 242 -48 440 -111 259 -82 332 -95 540 -95 209 0 250 7 545 95 351 105 430 120 627 120 172 0 293 -22 503 -90 182 -60 455 -186 628 -292 34 -21 65 -38 68 -38 3 0 16 12 28 27 11 15 49 60 83 99 l62 71 -77 55 c-256 182 -617 343 -925 412 -328 74 -596 57 -987 -64 -328 -102 -489 -128 -673 -111 -114 11 -157 19 -157 30 0 3 24 15 53 25 28 10 90 40 137 66 336 191 561 458 634 750 l24 95 7 -42 8 -43 51 37 c48 35 215 172 244 200 58 57 442 393 493 432 134 101 269 185 404 251 140 68 347 142 438 155 73 11 80 23 75 129 -6 116 -32 180 -100 241 -35 32 -69 51 -115 65 -63 19 -92 20 -947 20 -951 0 -912 2 -1046 -55 -36 -15 -247 -118 -470 -229 -223 -112 -443 -217 -490 -236 -301 -116 -587 -85 -745 81 -98 102 -145 244 -145 432 1 181 49 316 149 416 70 70 138 106 311 166 290 100 443 221 545 430 75 154 100 340 61 452 -20 60 -36 77 -36 38z m1514 -1868 c54 -30 89 -97 83 -156 -5 -47 -27 -83 -71 -115 -40 -30 -139 -29 -182 1 -72 51 -86 173 -28 234 57 61 131 75 198 36z"/>
<path d="M8209 6592 c-52 -43 -143 -110 -201 -149 -58 -40 -108 -80 -112 -89 -3 -8 -6 -161 -6 -338 l0 -323 26 -24 c14 -13 107 -85 207 -160 l182 -136 3 324 c1 177 1 469 0 648 l-3 325 -96 -78z"/>
<path d="M7695 6319 c-22 -5 -57 -14 -77 -20 l-38 -10 0 -279 c0 -221 3 -280 13 -280 7 0 45 -11 85 -24 l72 -23 0 217 c0 119 3 265 7 323 7 118 10 113 -62 96z"/>
<path d="M7390 6234 c-25 -7 -64 -21 -87 -30 l-43 -16 0 -168 0 -168 34 -21 c19 -12 59 -30 90 -41 l56 -19 0 240 c0 131 -1 239 -2 238 -2 -1 -23 -7 -48 -15z"/>
<path d="M7555 4653 c-123 -35 -128 -39 -154 -106 -83 -216 -231 -419 -482 -661 -196 -189 -558 -485 -744 -609 -22 -15 -37 -27 -33 -27 3 0 61 18 129 41 306 101 570 270 834 534 202 201 300 337 410 567 47 97 104 264 93 273 -1 1 -25 -4 -53 -12z"/>
<path d="M7114 4466 c-163 -77 -283 -168 -664 -506 -199 -176 -315 -273 -380 -317 -38 -26 -49 -40 -63 -85 -20 -64 -104 -208 -150 -257 l-32 -34 40 23 c374 220 1012 769 1219 1049 66 89 113 162 104 161 -2 -1 -35 -16 -74 -34z"/>
<path d="M4067 3396 c86 -43 226 -85 305 -93 56 -6 58 -5 137 48 44 30 80 56 81 59 0 3 -62 2 -137 -3 -125 -7 -359 3 -433 19 -14 3 7 -10 47 -30z"/>
<path d="M4056 2589 c-125 -18 -296 -78 -325 -113 -10 -12 -6 -30 24 -98 20 -46 41 -94 46 -106 7 -18 14 -22 27 -17 9 4 58 19 107 33 77 21 112 25 235 26 164 1 228 -10 441 -76 458 -140 523 -153 763 -146 190 6 287 24 551 105 334 103 432 123 589 123 93 0 222 -20 313 -48 l60 -19 48 101 c27 56 51 104 53 108 7 15 -95 69 -173 93 -202 61 -456 59 -690 -4 -38 -10 -146 -42 -239 -70 -451 -138 -644 -140 -1046 -14 -244 77 -337 102 -444 118 -111 16 -245 18 -340 4z"/>
</g>
</svg>