<svg xmlns="http://www.w3.org/2000/svg" version="1.0" viewBox="224 239.07 606.88 575.88"><g fill="#0B5394"><path d="M568.5 240.6c-16 3.9-32.8 15.6-42 29.4-14.3 21.5-16.4 46.7-5.7 69.2 16.8 35.7 55.3 50.8 92.1 36.2 18.2-7.2 32.8-22.8 39.9-42.6 3.4-9.6 4.3-28.6 1.8-39.1-6-25.4-26.3-46.3-51.2-52.7-9.3-2.4-25.8-2.6-34.9-.4m24.1 21.9c3.4 2.2 5.5 5.8 6.1 10.3 1.4 10.1-10.3 17.6-19.8 12.6-4-2-7.3-9.3-6.5-13.9 1.8-9.3 12.4-14.1 20.2-9m-38.6 37c3.9 2 6 6.3 6 12.1 0 3.9-.5 5.1-3.3 7.9-8.4 8.4-21.8 3-22.1-8.9-.1-4.9 2.3-9.2 6.5-11.3 3.3-1.7 9.4-1.6 12.9.2m76.3.4c4.4 2.9 6.1 6 6.1 11.3 0 4.1-.5 5.3-3.4 8.3-5.7 5.9-14.2 5.6-19.5-.6-4.6-5.5-2.8-16 3.3-19.3 3.8-2.1 10.1-2 13.5.3m-39.5 1.1c9.7 5.9 6 21-5.1 21-6.9 0-12.5-6.8-11.4-13.7.7-4.2 2.3-6.2 6.2-7.9 4.2-1.8 6.5-1.7 10.3.6m-.4 34.4c9.2 3.8 11.3 17.1 3.5 22.6-3.9 2.8-12.1 2.9-15.8.3-8.4-6.2-7.1-18.8 2.3-22.9 4-1.7 5.9-1.7 10 0"/><path d="M708.5 287c-17.3 3.5-32.5 16.1-38.6 31.8-3.3 8.7-3.8 23.9-1.1 32.9 3.4 11.1 12.2 22.6 22.6 29.4 3.3 2.2 5.3 3.9 4.5 4s-35.8.3-77.9.5-78.6.4-81.2.4c-3.4 0-5.4.6-6.8 2-1.9 1.9-2 3.3-2 25.4v23.5l2.6 2c2.5 2 4 2.1 22.5 2.1H573v13.4c0 7.4.4 14.6 1 16.1 2.1 5.5 2.5 5.5 68.5 5.5s66.4 0 68.5-5.5c.6-1.6 1-18.5 1-42.6V388h6.3c27.3 0 50.8-23.3 50.7-50.5-.1-32-29.7-56.7-60.5-50.5m15.4 28.3c4.9 8.4 4.7 8.3 19.4 10.2 3.1.4 4.7 1.1 4.7 2 0 .8-2.9 4.3-6.5 7.7l-6.5 6.3.8 9.8c.4 5.4.5 10 .1 10.2-.3.3-4.5-1.4-9.3-3.7l-8.7-4.2-8.5 4.2c-4.6 2.3-8.9 4.2-9.5 4.2-1.1 0-.6-10.2.7-17.2.5-2.3-.5-3.8-6-9.7-3.6-3.9-6.6-7.4-6.6-8 0-1.1 2.8-1.8 11.1-2.7 3.7-.4 7.1-.9 7.7-1.3.5-.3 3.1-4.1 5.7-8.4s5.2-7.6 5.8-7.4c.7.2 3.2 3.8 5.6 8"/><path d="M460 344.5c0 7.9-11.9 22.9-22.2 27.9-9.7 4.7-14.8 5.6-34 5.6-19.9 0-29.3 1.4-38.3 5.6-7.1 3.3-16.9 12.6-21 20.1l-2.9 5.2-2.9-5.7c-5.4-10.7-14.7-18.5-27-22.5-5.3-1.7-9.1-2.1-25.7-2.2-11.8-.1-21.3-.7-24-1.5-14.5-4-26.7-14.9-31.5-28.2-1.2-3.3-2.4-5.7-2.7-5.2-1.9 3-3.8 12.8-3.8 19 0 10.5 2.5 20.7 7.5 30.9 11 22.4 23.8 33.2 52.7 44.4 12.3 4.9 20.6 9.9 26.5 16.3 10.1 11.1 11.2 20.8 6.4 56.3-8 58.4 9 108.7 46.4 137.2 25 19.1 72.6 24.9 111.3 13.7 12.8-3.7 13.2-4 17.9-12.8 2.3-4.3 6-10.1 8.1-13 3.9-5.1 14.6-13.5 15.8-12.3.3.3-.6 2.5-1.9 4.9-1.4 2.4-4.7 9.2-7.2 15.2-6.5 15.2-11.5 24.9-17.3 33.4-6.4 9.4-21.4 26.5-29.7 33.8l-6.5 5.6-8.3-1.3c-12-2-41.8-1.8-53.2.5-24.9 4.8-49.6 13.4-73 25.5-13.3 6.9-34.9 20.4-37.4 23.4-1.5 1.8-.6 3 10.6 15.6l4.9 5.4 9.9-6c25.4-15.4 57.4-28.8 82-34.3 11.7-2.7 34-3.7 46-2.1 11.3 1.5 24.2 4.8 44 11.1 25.9 8.2 33.2 9.5 54 9.5 20.9 0 25-.7 54.5-9.5 35.1-10.5 43-12 62.7-12 17.2 0 29.3 2.2 50.3 9 18.2 6 45.5 18.6 62.8 29.2 3.4 2.1 6.5 3.8 6.8 3.8s1.6-1.2 2.8-2.7c1.1-1.5 4.9-6 8.3-9.9l6.2-7.1-7.7-5.5c-25.6-18.2-61.7-34.3-92.5-41.2-32.8-7.4-59.6-5.7-98.7 6.4-32.8 10.2-48.9 12.8-67.3 11.1-11.4-1.1-15.7-1.9-15.7-3 0-.3 2.4-1.5 5.3-2.5 2.8-1 9-4 13.7-6.6 33.6-19.1 56.1-45.8 63.4-75l2.4-9.5.7 4.2.8 4.3 5.1-3.7c4.8-3.5 21.5-17.2 24.4-20 5.8-5.7 44.2-39.3 49.3-43.2 13.4-10.1 26.9-18.5 40.4-25.1 14-6.8 34.7-14.2 43.8-15.5 7.3-1.1 8-2.3 7.5-12.9-.6-11.6-3.2-18-10-24.1-3.5-3.2-6.9-5.1-11.5-6.5-6.3-1.9-9.2-2-94.7-2-95.1 0-91.2-.2-104.6 5.5-3.6 1.5-24.7 11.8-47 22.9-22.3 11.2-44.3 21.7-49 23.6-30.1 11.6-58.7 8.5-74.5-8.1-9.8-10.2-14.5-24.4-14.5-43.2.1-18.1 4.9-31.6 14.9-41.6 7-7 13.8-10.6 31.1-16.6 29-10 44.3-22.1 54.5-43 7.5-15.4 10-34 6.1-45.2-2-6-3.6-7.7-3.6-3.8m151.4 186.8c5.4 3 8.9 9.7 8.3 15.6-.5 4.7-2.7 8.3-7.1 11.5-4 3-13.9 2.9-18.2-.1-7.2-5.1-8.6-17.3-2.8-23.4 5.7-6.1 13.1-7.5 19.8-3.6m209.5-166.5c-5.2 4.3-14.3 11-20.1 14.9-5.8 4-10.8 8-11.2 8.9-.3.8-.6 16.1-.6 33.8v32.3l2.6 2.4c1.4 1.3 10.7 8.5 20.7 16l18.2 13.6.3-32.4c.1-17.7.1-46.9 0-64.8l-.3-32.5zm-51.4 27.3c-2.2.5-5.7 1.4-7.7 2l-3.8 1V423c0 22.1.3 28 1.3 28 .7 0 4.5 1.1 8.5 2.4l7.2 2.3V434c0-11.9.3-26.5.7-32.3.7-11.8 1-11.3-6.2-9.6m-30.5 8.5c-2.5.7-6.4 2.1-8.7 3l-4.3 1.6v33.6l3.4 2.1c1.9 1.2 5.9 3 9 4.1l5.6 1.9v-24c0-13.1-.1-23.9-.2-23.8-.2.1-2.3.7-4.8 1.5"/><path d="M755.5 558.7c-12.3 3.5-12.8 3.9-15.4 10.6-8.3 21.6-23.1 41.9-48.2 66.1-19.6 18.9-55.8 48.5-74.4 60.9-2.2 1.5-3.7 2.7-3.3 2.7.3 0 6.1-1.8 12.9-4.1 30.6-10.1 57-27 83.4-53.4 20.2-20.1 30-33.7 41-56.7 4.7-9.7 10.4-26.4 9.3-27.3-.1-.1-2.5.4-5.3 1.2m-44.1 18.7c-16.3 7.7-28.3 16.8-66.4 50.6-19.9 17.6-31.5 27.3-38 31.7-3.8 2.6-4.9 4-6.3 8.5-2 6.4-10.4 20.8-15 25.7l-3.2 3.4 4-2.3c37.4-22 101.2-76.9 121.9-104.9 6.6-8.9 11.3-16.2 10.4-16.1-.2.1-3.5 1.6-7.4 3.4m-304.7 107c8.6 4.3 22.6 8.5 30.5 9.3 5.6.6 5.8.5 13.7-4.8 4.4-3 8-5.6 8.1-5.9 0-.3-6.2-.2-13.7.3-12.5.7-35.9-.3-43.3-1.9-1.4-.3.7 1 4.7 3m-1.1 80.7c-12.5 1.8-29.6 7.8-32.5 11.3-1 1.2-.6 3 2.4 9.8 2 4.6 4.1 9.4 4.6 10.6.7 1.8 1.4 2.2 2.7 1.7.9-.4 5.8-1.9 10.7-3.3 7.7-2.1 11.2-2.5 23.5-2.6 16.4-.1 22.8 1 44.1 7.6 45.8 14 52.3 15.3 76.3 14.6 19-.6 28.7-2.4 55.1-10.5 33.4-10.3 43.2-12.3 58.9-12.3 9.3 0 22.2 2 31.3 4.8l6 1.9 4.8-10.1c2.7-5.6 5.1-10.4 5.3-10.8.7-1.5-9.5-6.9-17.3-9.3-20.2-6.1-45.6-5.9-69 .4-3.8 1-14.6 4.2-23.9 7-45.1 13.8-64.4 14-104.6 1.4-24.4-7.7-33.7-10.2-44.4-11.8-11.1-1.6-24.5-1.8-34-.4"/></g></svg>